<?xml version="1.0" encoding="utf-8"?>
<!-- Generator: Adobe Illustrator 27.5.0, SVG Export Plug-In . SVG Version: 6.00 Build 0)  -->
<svg version="1.1" id="Layer_1" xmlns="http://www.w3.org/2000/svg" xmlns:xlink="http://www.w3.org/1999/xlink" x="0px" y="0px"
	 viewBox="-3550.169 -1851.969 4251.969 4387.746" style="enable-background:new -3550.169 -1851.969 4251.969 4387.746;"
	 xml:space="preserve">
<rect x="-3550.169" y="-1851.969" style="fill:#FFFFFF;" width="4251.969" height="4387.746"/>
<g>
	<g>
		<rect x="-2229.521" y="-189.883" style="fill-rule:evenodd;clip-rule:evenodd;fill:#223C77;" width="756.856" height="455.832"/>
	</g>
	<g>
		<path style="fill:#FFFFFF;" d="M-2160.347-64.852c-1.571,0-3.11-0.472-4.479-1.41c-2.742-1.944-3.935-5.464-2.918-8.673
			l6.812-21.757l-18.631-13.059c-2.768-1.938-3.966-5.463-2.955-8.693c1.011-3.234,4.022-5.433,7.408-5.433h23.032l6.874-21.747
			c1.016-3.235,4.028-5.433,7.408-5.433l0,0c3.406,0,6.392,2.213,7.408,5.448l6.827,21.731h23.048c3.385,0,6.392,2.198,7.408,5.433
			c1.005,3.24-0.187,6.755-2.955,8.704l-18.532,12.944l7.444,21.659c1.089,3.214-0.036,6.765-2.742,8.771
			c-2.778,2.022-6.485,2.006-9.196,0.005l-18.626-13.649l-17.941,13.587C-2157.034-65.385-2158.698-64.852-2160.347-64.852z
			 M-2150.482-108.344l3.121,2.188c2.768,1.934,3.966,5.448,2.955,8.678l-1.249,3.997l3.167-2.411
			c2.717-2.058,6.501-2.11,9.279-0.073l3.318,2.426l-1.306-3.743c-1.109-3.276,0.062-6.905,2.913-8.885l3.121-2.177h-4.1
			c-3.396,0-6.408-2.203-7.418-5.449l-1.146-3.618l-1.146,3.634c-1.006,3.235-4.018,5.433-7.397,5.433H-2150.482z"/>
	</g>
	<g>
		<path style="fill:#FFFFFF;" d="M-2046.13-64.852c-1.565,0-3.167-0.477-4.531-1.451c-2.716-1.959-3.893-5.448-2.882-8.652
			l6.879-21.84l-18.014-13.027c-2.721-1.965-3.867-5.474-2.83-8.688c1.047-3.188,4.022-5.365,7.387-5.365h22.436l7.517-21.938
			c1.094-3.136,4.054-5.241,7.355-5.241c0.026,0,0.047,0,0.104,0c3.359,0.036,6.293,2.234,7.299,5.433l6.853,21.747h22.281
			c3.354,0,6.34,2.177,7.376,5.365c1.037,3.214-0.109,6.724-2.82,8.688l-18.024,13.027l6.853,21.861
			c1.016,3.224-0.187,6.728-2.929,8.673c-2.799,1.954-6.469,1.892-9.165-0.176l-17.91-13.572l-18.652,13.649
			C-2042.916-65.355-2044.533-64.852-2046.13-64.852z M-2036.135-108.344l3.121,2.255c2.685,1.96,3.857,5.433,2.846,8.616
			l-1.436,4.587l4.209-3.079c2.769-2.037,6.527-1.985,9.269,0.083l3.146,2.374l-1.249-3.971c-1.011-3.188,0.155-6.651,2.841-8.61
			l3.126-2.255h-3.997c-3.38,0-6.397-2.198-7.413-5.433l-1.457-4.666l-1.664,4.853c-1.083,3.146-4.043,5.246-7.351,5.246H-2036.135z
			"/>
	</g>
	<g>
		<path style="fill:#FFFFFF;" d="M-1885.283-64.852c-1.602,0-3.224-0.503-4.593-1.508l-18.724-13.722l-18.745,13.722
			c-2.732,2.047-6.438,2.027-9.186-0.005c-2.716-2.021-3.831-5.557-2.742-8.771l7.439-21.659l-18.497-12.955
			c-2.778-1.938-3.965-5.463-2.96-8.693c1.016-3.234,4.023-5.433,7.408-5.433h23.021l6.853-21.747
			c2.027-6.469,12.784-6.469,14.811,0l6.848,21.747h23.053c3.38,0,6.402,2.198,7.408,5.433c1.016,3.24-0.187,6.755-2.955,8.704
			l-18.522,12.944l7.434,21.659c1.099,3.214-0.026,6.749-2.748,8.771C-1882.059-65.355-1883.666-64.852-1885.283-64.852z
			 M-1921.265-108.344l3.121,2.188c2.851,1.991,4.018,5.599,2.908,8.875l-1.306,3.773l3.349-2.457c2.727-1.996,6.454-1.996,9.176,0
			l3.359,2.457l-1.306-3.773c-1.12-3.276,0.052-6.905,2.898-8.885l3.121-2.177h-4.106c-3.385,0-6.392-2.198-7.402-5.433
			l-1.146-3.634l-1.151,3.634c-1,3.235-4.023,5.433-7.408,5.433H-1921.265z"/>
	</g>
	<g>
		<path style="fill:#FFFFFF;" d="M-1816.907-64.852c-1.571,0-3.116-0.477-4.479-1.425c-2.742-1.944-3.945-5.448-2.934-8.678
			l6.874-21.84l-18.004-13.027c-2.722-1.965-3.867-5.474-2.831-8.688c1.037-3.188,4.028-5.365,7.387-5.365h22.281l6.843-21.747
			c1.016-3.198,3.939-5.397,7.299-5.433c0.052,0,0.083,0,0.104,0c3.308,0,6.268,2.104,7.361,5.241l7.506,21.938h22.42
			c3.349,0,6.34,2.177,7.376,5.365c1.037,3.214-0.104,6.724-2.82,8.688l-17.994,13.027l6.854,21.861
			c1.005,3.193-0.166,6.672-2.877,8.631c-2.748,1.99-6.423,1.902-9.118-0.057l-18.626-13.649l-17.937,13.587
			C-1813.6-65.385-1815.259-64.852-1816.907-64.852z M-1794.368-97.474c1.628,0,3.225,0.508,4.593,1.508l4.209,3.079l-1.441-4.593
			c-1.016-3.188,0.155-6.651,2.851-8.61l3.116-2.255h-3.997c-3.307,0-6.262-2.1-7.35-5.246l-1.654-4.853l-1.472,4.666
			c-1.011,3.235-4.018,5.433-7.403,5.433h-4.002l3.121,2.255c2.69,1.96,3.867,5.433,2.852,8.616l-1.244,3.965l3.131-2.384
			C-1797.67-96.935-1796.016-97.474-1794.368-97.474z"/>
	</g>
	<g>
		<path style="fill:#FFFFFF;" d="M-1656.839-64.852c-1.648,0-3.297-0.534-4.687-1.571l-17.926-13.587l-18.662,13.649
			c-2.711,2.047-6.417,2.027-9.196-0.005c-2.711-2.021-3.841-5.557-2.748-8.771l7.439-21.659l-18.501-12.955
			c-2.758-1.938-3.955-5.463-2.939-8.693c0.995-3.234,4.018-5.433,7.402-5.433h23.022l6.848-21.747
			c2.022-6.469,12.789-6.469,14.821,0l6.843,21.747h23.058c3.38,0,6.387,2.198,7.403,5.433c1.011,3.24-0.187,6.755-2.965,8.704
			l-18.657,13.048l6.863,21.736c1,3.23-0.166,6.734-2.939,8.678C-1653.718-65.328-1655.268-64.852-1656.839-64.852z
			 M-1692.037-108.344l3.11,2.188c2.861,1.991,4.033,5.599,2.903,8.875l-1.301,3.773l3.365-2.457
			c2.778-2.037,6.552-1.985,9.269,0.073l3.147,2.384l-1.255-3.965c-1.011-3.235,0.197-6.749,2.96-8.693l3.121-2.177h-4.106
			c-3.38,0-6.407-2.198-7.418-5.433l-1.146-3.634l-1.14,3.634c-1.016,3.235-4.018,5.433-7.403,5.433H-1692.037z"/>
	</g>
	<g>
		<path style="fill:#FFFFFF;" d="M-1587.691-64.852c-1.56,0-3.121-0.472-4.474-1.41c-2.748-1.944-3.945-5.464-2.929-8.673
			l6.822-21.757l-18.636-13.059c-2.758-1.938-3.96-5.463-2.96-8.693c1.026-3.234,4.043-5.433,7.429-5.433h23.027l6.858-21.747
			c1-3.198,3.956-5.397,7.304-5.433c0.052,0,0.078,0,0.114,0c3.302,0,6.252,2.104,7.346,5.241l7.517,21.938h22.405
			c3.359,0,6.356,2.177,7.382,5.365c1.047,3.214-0.093,6.724-2.825,8.688l-17.978,13.027l6.848,21.861
			c1,3.193-0.161,6.672-2.893,8.631c-2.758,1.99-6.434,1.902-9.098-0.057l-18.625-13.649l-17.942,13.587
			C-1584.388-65.385-1586.037-64.852-1587.691-64.852z M-1565.135-97.474c1.592,0,3.225,0.508,4.567,1.508l4.225,3.079l-1.446-4.593
			c-1-3.188,0.171-6.651,2.846-8.61l3.121-2.255h-3.986c-3.313,0-6.278-2.1-7.366-5.246l-1.654-4.853l-1.457,4.666
			c-1.006,3.235-4.013,5.433-7.418,5.433h-4.111l3.1,2.188c2.778,1.934,3.971,5.448,2.96,8.678l-1.239,3.997l3.162-2.411
			C-1568.443-96.935-1566.789-97.474-1565.135-97.474z"/>
	</g>
	<g>
		<path style="fill:#FFFFFF;" d="M-2114.516,31.445c-1.648,0-3.271-0.524-4.655-1.56c-2.695-2.027-3.79-5.557-2.695-8.725
			l7.434-21.653l-18.522-12.96c-2.768-1.938-3.971-5.453-2.955-8.698c1.011-3.235,4.028-5.433,7.408-5.433h23.058l6.848-21.746
			c1.011-3.235,4.018-5.433,7.397-5.433l0,0c3.396,0,6.402,2.198,7.413,5.433l6.854,21.746h23.027c3.38,0,6.387,2.198,7.397,5.433
			c1.011,3.229-0.176,6.76-2.955,8.693l-18.501,12.965l7.438,21.653c1.094,3.167,0,6.697-2.685,8.725
			c-2.67,2.032-6.345,2.104-9.113,0.15l-18.875-13.198l-18.859,13.198C-2111.395,30.978-2112.961,31.445-2114.516,31.445z
			 M-2091.198-0.405c1.555,0,3.121,0.467,4.453,1.4l3.785,2.659l-1.602-4.644c-1.109-3.282,0.057-6.89,2.914-8.87l3.121-2.183
			h-4.106c-3.39,0-6.407-2.198-7.408-5.448l-1.156-3.629l-1.141,3.629c-1.011,3.25-4.018,5.448-7.403,5.448h-4.111l3.121,2.162
			c2.856,1.991,4.022,5.609,2.903,8.891l-1.602,4.644l3.79-2.659C-2094.309,0.061-2092.743-0.405-2091.198-0.405z"/>
	</g>
	<g>
		<path style="fill:#FFFFFF;" d="M-1953.664,31.445c-1.545,0-3.121-0.466-4.448-1.41l-18.781-13.141l-18.045,13.069
			c-2.722,1.97-6.371,1.954-9.082,0.01c-2.722-1.949-3.903-5.433-2.888-8.621l6.854-21.845l-18.02-13.032
			c-2.716-1.975-3.857-5.479-2.82-8.688c1.037-3.198,4.018-5.371,7.376-5.371h22.281l6.848-21.746
			c1.011-3.193,3.945-5.392,7.299-5.433c0.057,0,0.083,0,0.109,0c3.302,0,6.257,2.11,7.351,5.251l7.522,21.928h22.431
			c3.364,0,6.35,2.172,7.387,5.371c1.037,3.209-0.108,6.713-2.825,8.688l-18.019,13.032l6.879,21.84
			c0.99,3.167-0.135,6.62-2.825,8.584C-1950.435,30.937-1952.036,31.445-1953.664,31.445z M-1976.982-0.405
			c1.545,0,3.121,0.467,4.453,1.4l4.608,3.225l-1.71-5.397c-1.011-3.178,0.166-6.656,2.856-8.621l3.121-2.245h-4.002
			c-3.308,0-6.262-2.11-7.351-5.256l-1.659-4.836l-1.462,4.645c-1.016,3.25-4.022,5.448-7.408,5.448h-3.992l3.121,2.245
			c2.686,1.965,3.852,5.428,2.841,8.61l-1.519,4.821l3.546-2.556C-1980.175,0.087-1978.583-0.405-1976.982-0.405z"/>
	</g>
	<g>
		<path style="fill:#FFFFFF;" d="M-1885.283,31.445c-1.659,0-3.281-0.524-4.666-1.56c-2.695-2.027-3.784-5.557-2.695-8.725
			l7.434-21.653l-18.517-12.96c-2.768-1.938-3.971-5.453-2.96-8.698c1.016-3.235,4.028-5.433,7.408-5.433h23.053l6.848-21.746
			c1.016-3.235,4.023-5.433,7.413-5.433l0,0c3.38,0,6.387,2.198,7.403,5.433l6.843,21.746h23.032c3.385,0,6.402,2.198,7.408,5.433
			c1.016,3.229-0.192,6.76-2.955,8.693l-18.626,13.053l6.817,21.757c1.011,3.188-0.161,6.671-2.877,8.621
			c-2.716,1.944-6.366,1.96-9.087-0.01l-18.04-13.069l-18.787,13.141C-1882.168,30.978-1883.733,31.445-1885.283,31.445z
			 M-1874.63-12.043l3.125,2.162c2.851,1.991,4.018,5.609,2.908,8.891l-1.607,4.644l3.779-2.659c2.69-1.902,6.345-1.846,9.009,0.083
			l3.546,2.556l-1.524-4.821c-1.011-3.224,0.192-6.739,2.96-8.672l3.121-2.183h-4.111c-3.38,0-6.387-2.198-7.402-5.448l-1.141-3.629
			l-1.151,3.629c-1.016,3.25-4.022,5.448-7.413,5.448H-1874.63z"/>
	</g>
	<g>
		<path style="fill:#FFFFFF;" d="M-1724.437,31.445c-1.55,0-3.121-0.466-4.458-1.41l-18.781-13.141l-18.045,13.069
			c-2.716,1.97-6.366,1.954-9.087,0.01c-2.711-1.949-3.893-5.433-2.877-8.621l6.822-21.757l-18.615-13.053
			c-2.779-1.934-3.976-5.464-2.971-8.693c1.016-3.235,4.028-5.433,7.413-5.433h23.017l6.848-21.746
			c1.011-3.193,3.95-5.392,7.304-5.433c0.063,0,0.088,0,0.109,0c3.313,0,6.268,2.11,7.361,5.251l7.506,21.928h22.441
			c3.385,0,6.392,2.198,7.403,5.433c1.016,3.245-0.176,6.76-2.955,8.698l-18.512,12.96l7.429,21.653c1.099,3.167,0,6.697-2.69,8.725
			C-1721.166,30.921-1722.783,31.445-1724.437,31.445z M-1747.76-0.405c1.545,0,3.121,0.467,4.453,1.4l3.784,2.659l-1.597-4.644
			c-1.125-3.282,0.047-6.9,2.903-8.891l3.11-2.162h-3.323c-3.313,0-6.267-2.11-7.356-5.256l-1.653-4.836l-1.467,4.645
			c-1.011,3.25-4.022,5.448-7.408,5.448h-4.101l3.121,2.183c2.769,1.934,3.971,5.448,2.955,8.672l-1.519,4.821l3.551-2.556
			C-1750.952,0.087-1749.351-0.405-1747.76-0.405z"/>
	</g>
	<g>
		<path style="fill:#FFFFFF;" d="M-1610.23,31.445c-1.591,0-3.188-0.503-4.546-1.483l-18.076-13.069l-18.755,13.136
			c-2.742,1.985-6.423,1.887-9.119-0.145c-2.695-2.027-3.789-5.547-2.695-8.725l7.434-21.653l-18.512-12.96
			c-2.779-1.938-3.971-5.453-2.955-8.698c1.011-3.235,4.018-5.433,7.403-5.433h22.431l7.501-21.928
			c1.094-3.142,4.033-5.251,7.356-5.251c0.015,0,0.042,0,0.078,0c3.349,0.042,6.304,2.219,7.314,5.433l6.884,21.746h23.017
			c3.385,0,6.392,2.198,7.402,5.433c1.016,3.229-0.176,6.76-2.96,8.693l-18.621,13.053l6.833,21.757
			c1.016,3.188-0.171,6.671-2.882,8.621C-1607.063,30.942-1608.639,31.445-1610.23,31.445z M-1632.764-0.405
			c1.597,0,3.183,0.493,4.551,1.483l3.562,2.582l-1.514-4.847c-1.016-3.224,0.191-6.739,2.955-8.672l3.121-2.183h-4.1
			c-3.38,0-6.408-2.198-7.423-5.448l-1.452-4.66l-1.648,4.852c-1.094,3.131-4.039,5.256-7.351,5.256h-3.333l3.105,2.162
			c2.856,1.991,4.033,5.609,2.908,8.891l-1.602,4.624l3.758-2.623C-1635.885,0.061-1634.32-0.405-1632.764-0.405z"/>
	</g>
	<g>
		<path style="fill:#FFFFFF;" d="M-2160.347,122.293c-1.571,0-3.11-0.466-4.479-1.405c-2.742-1.944-3.935-5.469-2.918-8.678
			l6.812-21.757l-18.631-13.053c-2.768-1.939-3.966-5.469-2.955-8.693c1.011-3.235,4.022-5.433,7.408-5.433h23.032l6.874-21.752
			c1.016-3.235,4.028-5.433,7.408-5.433l0,0c3.406,0,6.392,2.219,7.408,5.453l6.827,21.731h23.048c3.385,0,6.392,2.198,7.408,5.433
			c1.005,3.234-0.187,6.754-2.955,8.698l-18.532,12.95l7.444,21.653c1.089,3.204-0.036,6.77-2.742,8.771
			c-2.778,2.022-6.485,2.011-9.196,0.01l-18.626-13.649l-17.941,13.581C-2157.034,121.759-2158.698,122.293-2160.347,122.293z
			 M-2150.482,78.805l3.121,2.188c2.768,1.929,3.966,5.448,2.955,8.678l-1.249,3.992l3.167-2.405
			c2.717-2.032,6.501-2.11,9.279-0.078l3.318,2.426l-1.306-3.743c-1.109-3.271,0.062-6.899,2.913-8.885l3.121-2.172h-4.1
			c-3.396,0-6.408-2.208-7.418-5.448l-1.146-3.624l-1.146,3.639c-1.006,3.234-4.018,5.433-7.397,5.433H-2150.482z"/>
	</g>
	<g>
		<path style="fill:#FFFFFF;" d="M-2046.13,122.293c-1.565,0-3.167-0.472-4.531-1.446c-2.716-1.96-3.893-5.448-2.882-8.652
			l6.879-21.84l-18.014-13.032c-2.721-1.97-3.867-5.469-2.83-8.683c1.047-3.193,4.022-5.366,7.387-5.366h22.436l7.517-21.938
			c1.094-3.136,4.054-5.246,7.355-5.246c0.026,0,0.047,0,0.104,0c3.359,0.042,6.293,2.239,7.299,5.433l6.853,21.752h22.281
			c3.354,0,6.34,2.172,7.376,5.366c1.037,3.214-0.109,6.713-2.82,8.683l-18.024,13.032l6.853,21.855
			c1.016,3.224-0.187,6.734-2.929,8.678c-2.799,1.928-6.469,1.877-9.165-0.187l-17.91-13.561l-18.652,13.649
			C-2042.916,121.79-2044.533,122.293-2046.13,122.293z M-2036.135,78.805l3.121,2.255c2.685,1.959,3.857,5.433,2.846,8.616
			l-1.436,4.588l4.209-3.085c2.769-2.032,6.527-1.985,9.269,0.083l3.146,2.379l-1.249-3.971c-1.011-3.188,0.155-6.651,2.841-8.61
			l3.126-2.255h-3.997c-3.38,0-6.397-2.198-7.413-5.433l-1.457-4.666l-1.664,4.852c-1.083,3.146-4.043,5.246-7.351,5.246H-2036.135z
			"/>
	</g>
	<g>
		<path style="fill:#FFFFFF;" d="M-1885.283,122.293c-1.602,0-3.224-0.503-4.593-1.503l-18.724-13.727l-18.745,13.727
			c-2.732,2.038-6.438,2.001-9.186-0.01c-2.716-2.017-3.831-5.567-2.742-8.771l7.439-21.653l-18.497-12.955
			c-2.778-1.939-3.965-5.469-2.96-8.693c1.016-3.235,4.023-5.433,7.408-5.433h23.021l6.853-21.752c2.027-6.47,12.784-6.47,14.811,0
			l6.848,21.752h23.053c3.38,0,6.402,2.198,7.408,5.433c1.016,3.234-0.187,6.754-2.955,8.698l-18.522,12.95l7.434,21.653
			c1.099,3.204-0.026,6.754-2.748,8.771C-1882.059,121.79-1883.666,122.293-1885.283,122.293z M-1921.265,78.805l3.121,2.188
			c2.851,1.985,4.018,5.599,2.908,8.87l-1.306,3.779l3.349-2.462c2.727-1.991,6.454-1.991,9.176,0l3.359,2.462l-1.306-3.779
			c-1.12-3.271,0.052-6.899,2.898-8.885l3.121-2.172h-4.106c-3.385,0-6.392-2.198-7.402-5.433l-1.146-3.639l-1.151,3.639
			c-1,3.234-4.023,5.433-7.408,5.433H-1921.265z"/>
	</g>
	<g>
		<path style="fill:#FFFFFF;" d="M-1816.907,122.293c-1.571,0-3.116-0.472-4.479-1.426c-2.742-1.938-3.945-5.448-2.934-8.672
			l6.874-21.84l-18.004-13.032c-2.722-1.97-3.867-5.469-2.831-8.683c1.037-3.193,4.028-5.366,7.387-5.366h22.281l6.843-21.752
			c1.016-3.193,3.939-5.391,7.299-5.433c0.052,0,0.083,0,0.104,0c3.308,0,6.268,2.11,7.361,5.246l7.506,21.938h22.42
			c3.349,0,6.34,2.172,7.376,5.366c1.037,3.214-0.104,6.713-2.82,8.683l-17.994,13.032l6.854,21.855
			c1.005,3.193-0.166,6.677-2.877,8.636c-2.748,1.98-6.423,1.902-9.118-0.057l-18.626-13.649l-17.937,13.581
			C-1813.6,121.759-1815.259,122.293-1816.907,122.293z M-1794.368,89.676c1.628,0,3.225,0.508,4.593,1.503l4.209,3.085
			l-1.441-4.593c-1.016-3.188,0.155-6.651,2.851-8.61l3.116-2.255h-3.997c-3.307,0-6.262-2.1-7.35-5.246l-1.654-4.852l-1.472,4.666
			c-1.011,3.234-4.018,5.433-7.403,5.433h-4.002l3.121,2.255c2.69,1.959,3.867,5.433,2.852,8.616l-1.244,3.966l3.131-2.385
			C-1797.67,90.204-1796.016,89.676-1794.368,89.676z"/>
	</g>
	<g>
		<path style="fill:#FFFFFF;" d="M-1656.839,122.293c-1.648,0-3.297-0.534-4.687-1.571l-17.926-13.581l-18.662,13.649
			c-2.711,2.038-6.417,2.001-9.196-0.01c-2.711-2.017-3.841-5.567-2.748-8.771l7.439-21.653l-18.501-12.955
			c-2.758-1.939-3.955-5.469-2.939-8.693c0.995-3.235,4.018-5.433,7.402-5.433h23.022l6.848-21.752c2.022-6.47,12.789-6.47,14.821,0
			l6.843,21.752h23.058c3.38,0,6.387,2.198,7.403,5.433c1.011,3.234-0.187,6.754-2.965,8.698l-18.657,13.048l6.863,21.741
			c1,3.224-0.166,6.734-2.939,8.672C-1653.718,121.821-1655.268,122.293-1656.839,122.293z M-1692.037,78.805l3.11,2.188
			c2.861,1.985,4.033,5.599,2.903,8.87l-1.301,3.779l3.365-2.462c2.778-2.032,6.552-1.955,9.269,0.078l3.147,2.385l-1.255-3.966
			c-1.011-3.235,0.197-6.754,2.96-8.699l3.121-2.172h-4.106c-3.38,0-6.407-2.198-7.418-5.433l-1.146-3.639l-1.14,3.639
			c-1.016,3.234-4.018,5.433-7.403,5.433H-1692.037z"/>
	</g>
	<g>
		<path style="fill:#FFFFFF;" d="M-1587.691,122.293c-1.56,0-3.121-0.466-4.474-1.405c-2.748-1.944-3.945-5.469-2.929-8.678
			l6.822-21.757l-18.636-13.053c-2.758-1.939-3.96-5.469-2.96-8.693c1.026-3.235,4.043-5.433,7.429-5.433h23.027l6.858-21.752
			c1-3.193,3.956-5.391,7.304-5.433c0.052,0,0.078,0,0.114,0c3.302,0,6.252,2.11,7.346,5.246l7.517,21.938h22.405
			c3.359,0,6.356,2.172,7.382,5.366c1.047,3.214-0.093,6.713-2.825,8.683l-17.978,13.032l6.848,21.855
			c1,3.193-0.161,6.677-2.893,8.636c-2.758,1.98-6.434,1.902-9.098-0.057l-18.625-13.649l-17.942,13.581
			C-1584.388,121.759-1586.037,122.293-1587.691,122.293z M-1565.135,89.676c1.592,0,3.225,0.508,4.567,1.503l4.225,3.085
			l-1.446-4.593c-1-3.188,0.171-6.651,2.846-8.61l3.121-2.255h-3.986c-3.313,0-6.278-2.1-7.366-5.246l-1.654-4.852l-1.457,4.666
			c-1.006,3.234-4.013,5.433-7.418,5.433h-4.111l3.1,2.188c2.778,1.929,3.971,5.448,2.96,8.678l-1.239,3.992l3.162-2.405
			C-1568.443,90.204-1566.789,89.676-1565.135,89.676z"/>
	</g>
	<g>
		<path style="fill:#FFFFFF;" d="M-2114.516,218.595c-1.648,0-3.297-0.545-4.687-1.592c-2.685-2.037-3.758-5.588-2.628-8.771
			l7.397-20.958l-18.646-13.686c-2.722-1.98-3.847-5.49-2.805-8.668c1.047-3.199,4.028-5.36,7.382-5.36h23.058l6.848-21.731
			c1.011-3.235,4.018-5.433,7.397-5.433l0,0c3.396,0,6.402,2.198,7.413,5.433l6.854,21.731h23.027c3.349,0,6.34,2.162,7.377,5.36
			c1.032,3.178-0.083,6.687-2.804,8.668l-18.631,13.686l7.413,20.958c1.12,3.183,0.063,6.734-2.639,8.771
			c-2.69,2.032-6.366,2.136-9.134,0.182l-18.875-13.198l-18.859,13.198C-2111.395,218.122-2112.961,218.595-2114.516,218.595z
			 M-2091.198,186.744c1.555,0,3.121,0.461,4.453,1.395l3.494,2.447l-1.275-3.572c-1.146-3.23-0.036-6.822,2.743-8.854l4.152-3.059
			h-5.002c-3.39,0-6.407-2.208-7.408-5.443l-1.156-3.634l-1.141,3.634c-1.011,3.235-4.018,5.443-7.403,5.443h-5.039l4.178,3.059
			c2.773,2.032,3.893,5.624,2.748,8.854l-1.28,3.572l3.494-2.447C-2094.309,187.206-2092.743,186.744-2091.198,186.744z"/>
	</g>
	<g>
		<path style="fill:#FFFFFF;" d="M-1999.495,218.595c-1.607,0-3.204-0.503-4.562-1.483c-2.711-1.991-3.867-5.484-2.825-8.678
			l6.827-21.161l-18.154-13.763c-2.659-2.012-3.722-5.501-2.659-8.663c1.058-3.157,4.022-5.288,7.351-5.288h22.281l6.848-21.731
			c1.011-3.193,3.945-5.391,7.299-5.433c0.057,0,0.083,0,0.109,0c3.302,0,6.257,2.1,7.351,5.246l7.522,21.918h22.431
			c3.333,0,6.293,2.131,7.366,5.288c1.058,3.162,0,6.651-2.68,8.663l-18.144,13.763l6.858,21.145
			c1.037,3.188-0.083,6.666-2.779,8.652c-2.633,1.965-6.34,2.012-9.056,0.114l-18.781-13.141l-18.045,13.068
			C-1996.307,218.092-1997.893,218.595-1999.495,218.595z M-1976.982,186.744c1.545,0,3.121,0.461,4.453,1.395l4.339,3.043
			l-1.405-4.36c-1.016-3.142,0.047-6.599,2.685-8.585l4.126-3.136h-4.873c-3.308,0-6.262-2.11-7.351-5.256l-1.659-4.832
			l-1.462,4.645c-1.016,3.235-4.022,5.443-7.408,5.443h-4.878l4.137,3.136c2.639,1.985,3.696,5.428,2.685,8.569l-1.197,3.779
			l3.25-2.364C-1980.175,187.237-1978.583,186.744-1976.982,186.744z"/>
	</g>
	<g>
		<path style="fill:#FFFFFF;" d="M-1839.447,218.595c-1.602,0-3.204-0.503-4.562-1.483l-18.04-13.068l-18.787,13.141
			c-2.747,1.954-6.449,1.851-9.134-0.182c-2.696-2.037-3.764-5.588-2.649-8.771l7.408-20.958l-18.652-13.686
			c-2.711-1.98-3.836-5.49-2.789-8.668c1.037-3.199,4.013-5.36,7.372-5.36h23.053l6.848-21.731c1.016-3.235,4.023-5.433,7.413-5.433
			l0,0c3.38,0,6.387,2.198,7.403,5.433l6.843,21.731h23.032c3.359,0,6.34,2.162,7.382,5.36c1.042,3.178-0.088,6.687-2.794,8.668
			l-18.761,13.784l6.786,21.063c1.042,3.193-0.104,6.687-2.82,8.678C-1836.254,218.092-1837.85,218.595-1839.447,218.595z
			 M-1861.966,186.744c1.591,0,3.193,0.492,4.551,1.477l3.25,2.364l-1.197-3.779c-1.042-3.183,0.078-6.656,2.799-8.646l4.157-3.059
			h-5.018c-3.38,0-6.387-2.208-7.402-5.443l-1.141-3.634l-1.151,3.634c-1.016,3.235-4.022,5.443-7.413,5.443h-5.034l4.189,3.059
			c2.778,2.032,3.888,5.624,2.742,8.854l-1.275,3.572l3.484-2.447C-1865.087,187.206-1863.516,186.744-1861.966,186.744z"/>
	</g>
	<g>
		<path style="fill:#FFFFFF;" d="M-1770.278,218.595c-1.592,0-3.193-0.503-4.557-1.483c-2.706-1.991-3.867-5.484-2.815-8.678
			l6.786-21.063l-18.761-13.784c-2.716-1.98-3.831-5.49-2.799-8.668c1.047-3.199,4.028-5.36,7.387-5.36h23.017l6.848-21.731
			c1.011-3.193,3.95-5.391,7.304-5.433c0.063,0,0.088,0,0.109,0c3.313,0,6.268,2.1,7.361,5.246l7.506,21.918h22.441
			c3.349,0,6.34,2.162,7.372,5.36c1.047,3.178-0.062,6.687-2.799,8.668l-18.636,13.686l7.397,20.958
			c1.13,3.183,0.052,6.734-2.623,8.771c-2.685,2.032-6.376,2.136-9.155,0.182l-18.781-13.141l-18.045,13.068
			C-1767.08,218.092-1768.677,218.595-1770.278,218.595z M-1761.325,175.101l4.157,3.059c2.716,1.99,3.847,5.464,2.799,8.646
			l-1.192,3.779l3.256-2.364c2.654-1.939,6.277-1.986,8.999-0.083l3.489,2.447l-1.275-3.572c-1.15-3.23-0.026-6.822,2.737-8.854
			l4.194-3.059h-4.267c-3.313,0-6.267-2.11-7.356-5.256l-1.653-4.832l-1.467,4.645c-1.011,3.235-4.022,5.443-7.408,5.443H-1761.325z
			"/>
	</g>
	<g>
		<path style="fill:#FFFFFF;" d="M-1656.066,218.595c-1.654,0-3.302-0.545-4.691-1.592c-2.675-2.037-3.758-5.588-2.634-8.771
			l7.403-20.958l-18.641-13.686c-2.732-1.98-3.841-5.49-2.81-8.668c1.042-3.199,4.033-5.36,7.387-5.36h22.431l7.501-21.918
			c1.094-3.146,4.033-5.246,7.356-5.246c0.015,0,0.042,0,0.078,0c3.349,0.042,6.304,2.219,7.314,5.417l6.884,21.747h23.017
			c3.349,0,6.345,2.162,7.392,5.36c1.026,3.178-0.078,6.687-2.81,8.668l-18.761,13.784l6.796,21.063
			c1.052,3.193-0.099,6.687-2.82,8.662c-2.711,1.996-6.392,1.986-9.103,0.016l-18.076-13.068l-18.755,13.131
			C-1652.946,218.122-1654.516,218.595-1656.066,218.595z M-1632.764,186.744c1.597,0,3.183,0.492,4.551,1.477l3.307,2.384
			l-1.223-3.8c-1.052-3.183,0.078-6.656,2.789-8.646l4.147-3.059h-4.997c-3.38,0-6.408-2.208-7.423-5.422l-1.452-4.665l-1.648,4.832
			c-1.094,3.136-4.039,5.256-7.351,5.256h-4.271l4.188,3.059c2.763,2.032,3.888,5.624,2.748,8.854l-1.26,3.535l3.432-2.39
			C-1635.885,187.206-1634.32,186.744-1632.764,186.744z"/>
	</g>
	<g>
		<path style="fill:#C41A1A;" d="M-490.521-125.415h-919.19c-10.741,0-19.445-8.699-19.445-19.419
			c0-10.72,8.704-19.414,19.445-19.414h919.19c10.71,0,19.43,8.693,19.43,19.414C-471.091-134.114-479.811-125.415-490.521-125.415z
			"/>
	</g>
	<g>
		<path style="fill:#C41A1A;" d="M-490.521,33.772h-919.19c-10.741,0-19.445-8.683-19.445-19.414
			c0-10.726,8.704-19.409,19.445-19.409h919.19c10.71,0,19.43,8.683,19.43,19.409C-471.091,25.089-479.811,33.772-490.521,33.772z"
			/>
	</g>
	<g>
		<path style="fill:#C41A1A;" d="M-490.521,192.97h-919.19c-10.741,0-19.445-8.698-19.445-19.419
			c0-10.72,8.704-19.414,19.445-19.414h919.19c10.71,0,19.43,8.693,19.43,19.414C-471.091,184.272-479.811,192.97-490.521,192.97z"
			/>
	</g>
	<g>
		<path style="fill:#C41A1A;" d="M-490.521,352.147h-1723.433c-10.72,0-19.429-8.689-19.429-19.419
			c0-10.725,8.709-19.408,19.429-19.408h1723.433c10.71,0,19.43,8.683,19.43,19.408
			C-471.091,343.459-479.811,352.147-490.521,352.147z"/>
	</g>
	<g>
		<path style="fill:#C41A1A;" d="M-490.521,511.355h-1723.433c-10.72,0-19.429-8.719-19.429-19.429
			c0-10.73,8.709-19.409,19.429-19.409h1723.433c10.71,0,19.43,8.679,19.43,19.409
			C-471.091,502.637-479.811,511.355-490.521,511.355z"/>
	</g>
	<g>
		<path style="fill:#C41A1A;" d="M-481.998,673.664h-1723.428c-10.715,0-19.424-8.719-19.424-19.429s8.709-19.43,19.424-19.43
			h1723.428c10.73,0,19.429,8.72,19.429,19.43S-471.268,673.664-481.998,673.664z"/>
	</g>
</g>
</svg>
